<?xml version="1.0" encoding="UTF-8" standalone="no"?>
<!DOCTYPE svg PUBLIC "-//W3C//DTD SVG 1.1//EN" "http://www.w3.org/Graphics/SVG/1.1/DTD/svg11.dtd">
<svg width="100%" height="100%" viewBox="0 0 3000 3000" version="1.1" xmlns="http://www.w3.org/2000/svg" xmlns:xlink="http://www.w3.org/1999/xlink" xml:space="preserve" xmlns:serif="http://www.serif.com/" style="fill-rule:evenodd;clip-rule:evenodd;stroke-linejoin:round;stroke-miterlimit:2;">
    <g transform="matrix(2.77778,0,0,2.77778,0,0)">
        <g transform="matrix(0.997883,0,0,1.01629,8.82164,-142.378)">
            <ellipse cx="540.568" cy="667.731" rx="414.742" ry="406.161" style="fill:white;"/>
        </g>
        <g transform="matrix(0.417707,0,0,0.417707,183.089,324.872)">
            <g transform="matrix(1273.98,0,0,1273.98,16.0044,927.089)">
                <path d="M0.078,-0.714L0.078,-0L0.173,-0L0.173,-0.305L0.405,-0.305C0.428,-0.305 0.447,-0.302 0.461,-0.295C0.475,-0.288 0.486,-0.278 0.495,-0.267C0.504,-0.255 0.51,-0.241 0.514,-0.226C0.518,-0.21 0.521,-0.193 0.524,-0.176C0.527,-0.159 0.529,-0.141 0.53,-0.123C0.531,-0.105 0.531,-0.088 0.532,-0.073C0.533,-0.057 0.534,-0.043 0.537,-0.03C0.539,-0.017 0.543,-0.007 0.55,-0L0.656,-0C0.646,-0.012 0.639,-0.026 0.634,-0.042C0.628,-0.057 0.625,-0.074 0.622,-0.091C0.619,-0.108 0.618,-0.126 0.617,-0.144C0.616,-0.162 0.615,-0.18 0.614,-0.197C0.612,-0.214 0.609,-0.231 0.606,-0.247C0.602,-0.263 0.596,-0.278 0.589,-0.291C0.581,-0.304 0.571,-0.315 0.558,-0.324C0.545,-0.333 0.528,-0.34 0.507,-0.344L0.507,-0.346C0.55,-0.358 0.582,-0.38 0.602,-0.413C0.621,-0.446 0.631,-0.484 0.631,-0.527C0.631,-0.585 0.612,-0.631 0.574,-0.664C0.535,-0.697 0.482,-0.714 0.414,-0.714L0.078,-0.714ZM0.371,-0.385L0.173,-0.385L0.173,-0.634L0.409,-0.634C0.454,-0.634 0.486,-0.623 0.506,-0.6C0.526,-0.577 0.536,-0.548 0.536,-0.512C0.536,-0.486 0.532,-0.465 0.523,-0.449C0.514,-0.432 0.501,-0.419 0.487,-0.41C0.472,-0.4 0.454,-0.393 0.434,-0.39C0.414,-0.387 0.393,-0.385 0.371,-0.385Z" style="fill-opacity:0.88;fill-rule:nonzero;"/>
            </g>
            <g transform="matrix(1273.98,0,0,1273.98,888.677,927.089)">
                <path d="M0.201,-0.295L0.322,-0.628L0.324,-0.628L0.443,-0.295L0.201,-0.295ZM0.272,-0.714L-0.006,-0L0.091,-0L0.171,-0.215L0.473,-0.215L0.551,-0L0.656,-0L0.377,-0.714L0.272,-0.714Z" style="fill-opacity:0.88;fill-rule:nonzero;"/>
            </g>
        </g>
    </g>
</svg>
